<svg width="25" height="24" viewBox="0 0 25 24" fill="none" xmlns="http://www.w3.org/2000/svg">
<g clip-path="url(#clip0_2001_31)">
<path fill-rule="evenodd" clip-rule="evenodd" d="M1.5 1.3C1.1134 1.3 0.800003 1.6134 0.800003 2C0.800003 2.3866 1.1134 2.7 1.5 2.7H4.89324L5.76742 7.10284C5.77081 7.12585 5.77532 7.1485 5.7809 7.17073L7.43963 15.525L7.43976 15.5257C7.56207 16.1456 7.89693 16.7036 8.38721 17.1015C8.87592 17.4981 9.48783 17.7101 10.1166 17.6996L18.5414 17.6996C18.6185 17.8764 18.7948 18 19 18C19.2052 18 19.3815 17.8764 19.4586 17.6996L19.9226 17.6996C20.5514 17.71 21.1633 17.498 21.6521 17.1015C22.1425 16.7034 22.4774 16.1452 22.5996 15.525L22.6006 15.5197L22.993 13.4458C22.5204 13.6846 22.0094 13.8585 21.4717 13.9555L21.226 15.2543L21.2256 15.2565C21.166 15.5562 21.0043 15.8241 20.7699 16.0144C20.5351 16.2049 20.2421 16.3055 19.9424 16.2997L19.9424 16.2996H19.9289L10.1104 16.2996V16.2995L10.0969 16.2998C9.79714 16.3056 9.5042 16.205 9.26938 16.0144C9.03443 15.8237 8.87244 15.5549 8.81322 15.2544L8.81302 15.2534L7.31329 7.69988L14.9187 7.69986C14.9837 7.2104 15.1119 6.74091 15.2949 6.29986L7.03532 6.29988L6.15452 1.86368C6.08946 1.53603 5.80196 1.3 5.46792 1.3H1.5ZM12.4387 21C12.4387 22.1046 11.5433 23 10.4387 23C9.33415 23 8.43872 22.1046 8.43872 21C8.43872 19.8954 9.33415 19 10.4387 19C11.5433 19 12.4387 19.8954 12.4387 21ZM21.3713 21C21.3713 22.1046 20.4759 23 19.3713 23C18.2668 23 17.3713 22.1046 17.3713 21C17.3713 19.8954 18.2668 19 19.3713 19C20.4759 19 21.3713 19.8954 21.3713 21Z" fill="black"/>
<path d="M21.1951 4.81941H19.745V7.71943H16.845V9.16943H19.745V12.0694H21.1951V9.16943H24.0951V7.71943H21.1951V4.81941Z" fill="black"/>
</g>
<defs>
<clipPath id="clip0_2001_31">
<rect width="24" height="24" fill="white" transform="translate(0.5)"/>
</clipPath>
</defs>
</svg>
