<svg width="30" height="30" viewBox="0 0 30 30" fill="none" xmlns="http://www.w3.org/2000/svg">
<path fill-rule="evenodd" clip-rule="evenodd" d="M6.20996 1.7998L6.33301 1.81055C6.61244 1.86029 6.83946 2.07689 6.89648 2.36328L8.02539 8.0498H28.75C28.9583 8.0498 29.1561 8.14238 29.2891 8.30273C29.422 8.46324 29.4762 8.67508 29.4375 8.87988L27.4541 19.3672L27.4531 19.3721C27.3082 20.1074 26.9112 20.7696 26.3301 21.2412C25.7523 21.7101 25.0291 21.9594 24.2861 21.9482V21.9492H12.0127V21.9482C11.27 21.9594 10.5474 21.7098 9.96973 21.2412C9.38877 20.7698 8.99167 20.1081 8.84668 19.373L6.76758 8.9043C6.76539 8.8946 6.7635 8.88484 6.76172 8.875L5.63574 3.2002H1.25C0.863401 3.2002 0.549805 2.8866 0.549805 2.5C0.549805 2.1134 0.863401 1.7998 1.25 1.7998H6.20996ZM10.2197 19.1006V19.1016C10.3016 19.5172 10.5259 19.8901 10.8516 20.1543C11.1769 20.4182 11.5832 20.5577 11.999 20.5498H24.2998C24.7157 20.5578 25.1219 20.4182 25.4473 20.1543C25.7729 19.8901 25.9972 19.5172 26.0791 19.1016L27.9053 9.4502H8.30371L10.2197 19.1006ZM19 17.5C19 17.7761 18.7761 18 18.5 18C18.2239 18 18 17.7761 18 17.5C18 17.2239 18.2239 17 18.5 17C18.7761 17 19 17.2239 19 17.5ZM12.4234 28.75C13.8041 28.75 14.9234 27.6307 14.9234 26.25C14.9234 24.8693 13.8041 23.75 12.4234 23.75C11.0427 23.75 9.9234 24.8693 9.9234 26.25C9.9234 27.6307 11.0427 28.75 12.4234 28.75ZM23.5892 28.75C24.9699 28.75 26.0892 27.6307 26.0892 26.25C26.0892 24.8693 24.9699 23.75 23.5892 23.75C22.2085 23.75 21.0892 24.8693 21.0892 26.25C21.0892 27.6307 22.2085 28.75 23.5892 28.75Z" fill="black"/>
</svg>
