<svg width="280" height="280" viewBox="0 0 280 280" fill="none" xmlns="http://www.w3.org/2000/svg">
<path opacity="0.1" fill-rule="evenodd" clip-rule="evenodd" d="M275.318 151.304C281.561 145.061 281.561 134.939 275.318 128.696L151.304 4.68234C145.061 -1.56078 134.939 -1.56078 128.696 4.68234L4.68234 128.696C-1.56078 134.939 -1.56078 145.061 4.68234 151.304L128.696 275.318C134.939 281.561 145.061 281.561 151.304 275.318L275.318 151.304ZM222.035 151.304C228.278 145.061 228.278 134.939 222.035 128.696L151.304 57.9652C145.061 51.722 134.939 51.722 128.696 57.9652L57.9652 128.696C51.722 134.939 51.7221 145.061 57.9652 151.304L128.696 222.035C134.939 228.278 145.061 228.278 151.304 222.035L222.035 151.304Z" fill="white"/>
</svg>
